<svg xmlns="http://www.w3.org/2000/svg" xmlns:xlink="http://www.w3.org/1999/xlink" width="241.094" height="38.818" viewBox="0 0 241.094 38.818"><defs><clipPath id="clip-path"><rect id="Rect&#xE1;ngulo_17" data-name="Rect&#xE1;ngulo 17" width="207.859" height="12.02" fill="none"></rect></clipPath></defs><g id="Logo_horizontal_v2" transform="translate(0)"><g id="Grupo_49579" data-name="Grupo 49579" transform="translate(33.234 11.186)"><path id="Trazado_8" data-name="Trazado 8" d="M7.86.756,5.272,9.678H5.225L2.627.756H0L3.793,12.109H6.7L10.5.756Z" transform="translate(0 -0.285)" fill="#d5841f"></path><rect id="Rect&#xE1;ngulo_15" data-name="Rect&#xE1;ngulo 15" width="2.376" height="11.353" transform="translate(11.733 0.47)" fill="#d5841f"></rect><path id="Trazado_9" data-name="Trazado 9" d="M32.509.756,29.921,9.678h-.047L27.277.756H24.649l3.793,11.353h2.9L35.145.756Z" transform="translate(-9.295 -0.285)" fill="#d5841f"></path><rect id="Rect&#xE1;ngulo_16" data-name="Rect&#xE1;ngulo 16" width="2.376" height="11.353" transform="translate(27.087 0.47)" fill="#d5841f"></rect><path id="Trazado_10" data-name="Trazado 10" d="M50.46.756V12.109h7.522V10.15H52.836V7.3h4.854V5.437H52.836V2.715h5.146V.756Z" transform="translate(-19.028 -0.285)" fill="#d5841f"></path><path id="Trazado_11" data-name="Trazado 11" d="M72.672.756v7.38h-.052L67.5.756H65.418V12.109h2.368V4.682h.049l5.143,7.427h2.062V.756Z" transform="translate(-24.668 -0.285)" fill="#d5841f"></path><g id="Grupo_13" data-name="Grupo 13" transform="translate(0 0)"><g id="Grupo_12" data-name="Grupo 12" clip-path="url(#clip-path)"><path id="Trazado_12" data-name="Trazado 12" d="M84.025.756h4.336a6.053,6.053,0,0,1,2.915.653,4.4,4.4,0,0,1,1.853,1.908,6.618,6.618,0,0,1,.645,3.057v.016a6.825,6.825,0,0,1-.642,3.084,4.479,4.479,0,0,1-1.853,1.959,5.9,5.9,0,0,1-2.919.677H84.025Zm4.052,9.386a3.5,3.5,0,0,0,1.79-.425,2.7,2.7,0,0,0,1.105-1.259A4.982,4.982,0,0,0,91.351,6.4V6.381a4.672,4.672,0,0,0-.386-2,2.724,2.724,0,0,0-1.118-1.239,3.491,3.491,0,0,0-1.77-.421H86.4v7.42Z" transform="translate(-31.684 -0.285)" fill="#d5841f"></path><path id="Trazado_13" data-name="Trazado 13" d="M104.305.755h2.1v2.2h-.724l-2.841,9.15h-2.494Zm-1.243,6.822h5.295l.582,1.778h-6.46Zm2.667-4.618V.755h1.377l3.957,11.353h-2.5Z" transform="translate(-37.839 -0.285)" fill="#d5841f"></path><path id="Trazado_14" data-name="Trazado 14" d="M120.707,11.789a3.653,3.653,0,0,1-1.581-1.141,3.148,3.148,0,0,1-.642-1.79l-.008-.126h2.243l.015.087a1.4,1.4,0,0,0,.4.759,2.143,2.143,0,0,0,.83.5,3.532,3.532,0,0,0,1.156.177,3.269,3.269,0,0,0,1.137-.177,1.646,1.646,0,0,0,.736-.5,1.186,1.186,0,0,0,.26-.759V8.8a1.048,1.048,0,0,0-.453-.9,4.048,4.048,0,0,0-1.507-.539l-1.2-.244a5.035,5.035,0,0,1-2.529-1.137,2.744,2.744,0,0,1-.854-2.089V3.885a3.043,3.043,0,0,1,.567-1.81,3.7,3.7,0,0,1,1.534-1.2,5.46,5.46,0,0,1,2.234-.433,5.7,5.7,0,0,1,2.27.413,3.486,3.486,0,0,1,1.491,1.157,3.218,3.218,0,0,1,.591,1.743l.007.141h-2.242l-.016-.094a1.373,1.373,0,0,0-.334-.764,1.841,1.841,0,0,0-.728-.487,3.213,3.213,0,0,0-2.085,0,1.489,1.489,0,0,0-.673.483,1.161,1.161,0,0,0-.232.712v.008a1.018,1.018,0,0,0,.457.87,3.829,3.829,0,0,0,1.432.523l1.2.244A5.37,5.37,0,0,1,126.8,6.509a2.723,2.723,0,0,1,.83,2.1v.008a3.266,3.266,0,0,1-.547,1.892,3.514,3.514,0,0,1-1.573,1.235,6.268,6.268,0,0,1-2.459.437,6.362,6.362,0,0,1-2.349-.4" transform="translate(-44.675 -0.166)" fill="#d5841f"></path><path id="Trazado_15" data-name="Trazado 15" d="M143.665,7.868,139.715.755h2.565l2.55,4.846h.055L147.425.755H150L146.04,7.868v4.241h-2.376Z" transform="translate(-52.684 -0.285)" fill="#d5841f"></path><path id="Trazado_16" data-name="Trazado 16" d="M162.033.755h2.628l2.6,8.922h.047L169.893.755h2.636l-3.8,11.353h-2.9Z" transform="translate(-61.1 -0.285)" fill="#d5841f"></path><path id="Trazado_17" data-name="Trazado 17" d="M181.261.755h2.1v2.2h-.724l-2.84,9.15H177.3Zm-1.243,6.822h5.3l.582,1.778h-6.46Zm2.667-4.618V.755h1.377l3.957,11.353h-2.5Z" transform="translate(-66.858 -0.285)" fill="#d5841f"></path><path id="Trazado_18" data-name="Trazado 18" d="M196.376.755h2.376V10.15h4.965v1.959h-7.341Z" transform="translate(-74.05 -0.285)" fill="#d5841f"></path><path id="Trazado_19" data-name="Trazado 19" d="M211.652,11.474a4.791,4.791,0,0,1-1.9-2.029,6.833,6.833,0,0,1-.668-3.128V6.3a6.768,6.768,0,0,1,.673-3.124,4.816,4.816,0,0,1,1.9-2.026,6.283,6.283,0,0,1,5.817,0,4.828,4.828,0,0,1,1.9,2.026,6.78,6.78,0,0,1,.67,3.12v.016a6.8,6.8,0,0,1-.67,3.123,4.825,4.825,0,0,1-1.892,2.03,6.3,6.3,0,0,1-5.83,0m4.54-1.778a3.058,3.058,0,0,0,1.05-1.342,5.155,5.155,0,0,0,.369-2.038V6.3a5.144,5.144,0,0,0-.373-2.046,3.014,3.014,0,0,0-1.059-1.334,3.017,3.017,0,0,0-3.229,0,3,3,0,0,0-1.062,1.329,5.116,5.116,0,0,0-.374,2.05v.016a5.121,5.121,0,0,0,.374,2.046A3.036,3.036,0,0,0,212.946,9.7a3.015,3.015,0,0,0,3.246,0" transform="translate(-78.841 -0.166)" fill="#d5841f"></path><path id="Trazado_20" data-name="Trazado 20" d="M229.128.755h4.689A5.009,5.009,0,0,1,236,1.192a3.174,3.174,0,0,1,1.392,1.247,3.741,3.741,0,0,1,.484,1.952v.016a3.63,3.63,0,0,1-.554,1.995,3.065,3.065,0,0,1-1.5,1.239l2.392,4.469h-2.7L233.408,8h-1.9v4.108h-2.376Zm4.43,5.437a1.943,1.943,0,0,0,1.385-.472,1.7,1.7,0,0,0,.5-1.306V4.4a1.676,1.676,0,0,0-.523-1.3,1.987,1.987,0,0,0-1.4-.48H231.5V6.192Z" transform="translate(-86.4 -0.285)" fill="#d5841f"></path><path id="Trazado_21" data-name="Trazado 21" d="M245.686.755h7.522V2.714h-5.146V5.437h4.855V7.3h-4.855V10.15h5.146v1.959h-7.522Z" transform="translate(-92.644 -0.285)" fill="#d5841f"></path><path id="Trazado_22" data-name="Trazado 22" d="M262.051,11.789a3.653,3.653,0,0,1-1.581-1.141,3.148,3.148,0,0,1-.642-1.79l-.008-.126h2.243l.015.087a1.4,1.4,0,0,0,.4.759,2.143,2.143,0,0,0,.83.5,3.532,3.532,0,0,0,1.156.177,3.269,3.269,0,0,0,1.137-.177,1.646,1.646,0,0,0,.736-.5,1.186,1.186,0,0,0,.26-.759V8.8a1.048,1.048,0,0,0-.453-.9,4.049,4.049,0,0,0-1.507-.539l-1.2-.244a5.035,5.035,0,0,1-2.529-1.137,2.744,2.744,0,0,1-.854-2.089V3.885a3.043,3.043,0,0,1,.567-1.81,3.7,3.7,0,0,1,1.534-1.2,5.46,5.46,0,0,1,2.234-.433,5.7,5.7,0,0,1,2.27.413,3.486,3.486,0,0,1,1.491,1.157,3.219,3.219,0,0,1,.591,1.743l.007.141h-2.243l-.016-.094a1.373,1.373,0,0,0-.334-.764,1.84,1.84,0,0,0-.728-.487,3.213,3.213,0,0,0-2.085,0,1.489,1.489,0,0,0-.673.483,1.161,1.161,0,0,0-.232.712v.008a1.018,1.018,0,0,0,.457.87,3.829,3.829,0,0,0,1.432.523l1.2.244a5.37,5.37,0,0,1,2.616,1.121,2.723,2.723,0,0,1,.83,2.1v.008a3.266,3.266,0,0,1-.547,1.892,3.514,3.514,0,0,1-1.573,1.235,6.268,6.268,0,0,1-2.459.437,6.362,6.362,0,0,1-2.349-.4" transform="translate(-97.973 -0.166)" fill="#d5841f"></path><path id="Trazado_23" data-name="Trazado 23" d="M283.5,11.789a3.655,3.655,0,0,1-1.582-1.141,3.147,3.147,0,0,1-.641-1.79l-.008-.126h2.242l.016.087a1.4,1.4,0,0,0,.4.759,2.141,2.141,0,0,0,.83.5,3.529,3.529,0,0,0,1.156.177,3.272,3.272,0,0,0,1.137-.177,1.64,1.64,0,0,0,.736-.5,1.183,1.183,0,0,0,.26-.759V8.8a1.048,1.048,0,0,0-.453-.9,4.045,4.045,0,0,0-1.506-.539l-1.2-.244a5.04,5.04,0,0,1-2.53-1.137,2.746,2.746,0,0,1-.853-2.089V3.885a3.042,3.042,0,0,1,.566-1.81A3.7,3.7,0,0,1,283.6.872,5.463,5.463,0,0,1,285.84.439a5.7,5.7,0,0,1,2.269.413A3.485,3.485,0,0,1,289.6,2.009a3.218,3.218,0,0,1,.59,1.743l.008.141h-2.243L287.94,3.8a1.374,1.374,0,0,0-.335-.764,1.842,1.842,0,0,0-.728-.487,3.215,3.215,0,0,0-2.086,0,1.487,1.487,0,0,0-.672.483,1.157,1.157,0,0,0-.232.712v.008a1.019,1.019,0,0,0,.456.87,3.834,3.834,0,0,0,1.432.523l1.2.244A5.373,5.373,0,0,1,289.6,6.509a2.725,2.725,0,0,1,.83,2.1v.008a3.267,3.267,0,0,1-.547,1.892,3.507,3.507,0,0,1-1.573,1.235,6.265,6.265,0,0,1-2.458.437,6.358,6.358,0,0,1-2.349-.4" transform="translate(-106.061 -0.166)" fill="#d5841f"></path><path id="Trazado_24" data-name="Trazado 24" d="M298.214,17.284a1.282,1.282,0,0,1,0-1.81,1.243,1.243,0,0,1,.909-.37,1.275,1.275,0,1,1,0,2.55,1.243,1.243,0,0,1-.909-.37" transform="translate(-112.31 -5.696)" fill="#d5841f"></path><path id="Trazado_25" data-name="Trazado 25" d="M307.316.755h2.1v2.2h-.724l-2.841,9.15h-2.494Zm-1.243,6.822h5.295l.582,1.778h-6.46Zm2.667-4.618V.755h1.377l3.957,11.353h-2.5Z" transform="translate(-114.391 -0.285)" fill="#d5841f"></path><path id="Trazado_26" data-name="Trazado 26" d="M322.35,17.284a1.281,1.281,0,0,1,0-1.81,1.275,1.275,0,1,1,0,1.81" transform="translate(-121.411 -5.696)" fill="#d5841f"></path><path id="Trazado_27" data-name="Trazado 27" d="M326.415,1.974h1.572a1.675,1.675,0,0,1,.732.146,1.063,1.063,0,0,1,.467.418,1.252,1.252,0,0,1,.163.654v0a1.218,1.218,0,0,1-.186.669,1.029,1.029,0,0,1-.5.415l.8,1.5h-.905L327.85,4.4h-.638V5.78h-.8ZM327.9,3.8a.653.653,0,0,0,.464-.158.571.571,0,0,0,.169-.438V3.195a.562.562,0,0,0-.175-.435.668.668,0,0,0-.468-.161h-.678V3.8Z" transform="translate(-123.085 -0.745)" fill="#d5841f"></path><path id="Trazado_28" data-name="Trazado 28" d="M326.666,6.351a3.175,3.175,0,1,1,3.176-3.175,3.179,3.179,0,0,1-3.176,3.175m0-6.061a2.886,2.886,0,1,0,2.886,2.886A2.889,2.889,0,0,0,326.666.29" transform="translate(-121.983 0)" fill="#d5841f"></path></g></g></g><g id="Grupo_50492" data-name="Grupo 50492" transform="translate(9185.976 4438)"><path id="Trazado_2824" data-name="Trazado 2824" d="M86.024,15.806h4.4l9.934,24.268,10.083-24.268h4.251L102.829,44.918H97.887Z" transform="translate(-9272 -4444.1)" fill="#d5841f"></path><path id="Trazado_2825" data-name="Trazado 2825" d="M107.578,0,101.6,14.284,95.876,0H89.255L98.5,22.486h6.621L113.949,0Z" transform="translate(-9273.247 -4438)" fill="#d5841f"></path></g></g></svg>